<mxfile host="app.diagrams.net" agent="Mozilla/5.0 (Windows NT 10.0; Win64; x64; rv:131.0) Gecko/20100101 Firefox/131.0" version="24.8.0">
  <diagram name="PÃ¡gina-1" id="XmUJzA24T33OHxwTZ9Q0">
    <mxGraphModel dx="1354" dy="1892" grid="1" gridSize="10" guides="1" tooltips="1" connect="1" arrows="1" fold="1" page="1" pageScale="1" pageWidth="827" pageHeight="1169" math="0" shadow="0">
      <root>
        <mxCell id="0" />
        <mxCell id="1" parent="0" />
        <mxCell id="2YfyIhOvXKWT7bT9Da6l-19" value="" style="edgeStyle=orthogonalEdgeStyle;rounded=0;orthogonalLoop=1;jettySize=auto;html=1;" parent="1" source="2YfyIhOvXKWT7bT9Da6l-4" target="2YfyIhOvXKWT7bT9Da6l-15" edge="1">
          <mxGeometry relative="1" as="geometry" />
        </mxCell>
        <mxCell id="2YfyIhOvXKWT7bT9Da6l-4" value="&lt;font style=&quot;font-size: 16px;&quot;&gt;LEITURA VARIAVEL LETRAS&lt;/font&gt;" style="html=1;strokeWidth=2;shape=manualInput;whiteSpace=wrap;rounded=1;size=26;arcSize=11;" parent="1" vertex="1">
          <mxGeometry x="340" y="140" width="146" height="80" as="geometry" />
        </mxCell>
        <mxCell id="2YfyIhOvXKWT7bT9Da6l-6" value="&lt;div&gt;&lt;br&gt;&lt;/div&gt;&lt;div&gt;&lt;br&gt;&lt;/div&gt;&lt;div&gt;&lt;br&gt;&lt;/div&gt;&lt;div&gt;&lt;br&gt;&lt;/div&gt;&lt;div&gt;&lt;br&gt;&lt;/div&gt;&lt;div&gt;&lt;br&gt;&lt;/div&gt;&lt;div&gt;&lt;br&gt;&lt;/div&gt;&lt;div&gt;&lt;br&gt;&lt;/div&gt;&lt;div&gt;&lt;br&gt;&lt;/div&gt;&lt;div&gt;&lt;br&gt;&lt;/div&gt;&lt;div&gt;&lt;br&gt;&lt;/div&gt;&lt;div&gt;&lt;br&gt;&lt;/div&gt;&lt;div&gt;&lt;br&gt;&lt;/div&gt;&lt;div&gt;&lt;br&gt;&lt;/div&gt;&lt;div&gt;&lt;br&gt;&lt;/div&gt;&lt;div&gt;&lt;br&gt;&lt;/div&gt;&lt;div&gt;&lt;br&gt;&lt;/div&gt;&lt;div&gt;&lt;br&gt;&lt;/div&gt;&lt;div&gt;&lt;br&gt;&lt;/div&gt;&lt;div&gt;&lt;br&gt;&lt;/div&gt;&lt;div&gt;&lt;br&gt;&lt;/div&gt;&lt;div&gt;&lt;br&gt;&lt;/div&gt;&lt;div&gt;&lt;br&gt;&lt;/div&gt;&lt;div&gt;&lt;br&gt;&lt;/div&gt;&lt;div&gt;&lt;br&gt;&lt;/div&gt;&lt;div&gt;&lt;br&gt;&lt;/div&gt;" style="shape=display;whiteSpace=wrap;html=1;" parent="1" vertex="1">
          <mxGeometry x="10" y="140" width="100" height="50" as="geometry" />
        </mxCell>
        <mxCell id="2YfyIhOvXKWT7bT9Da6l-7" value="" style="rounded=0;whiteSpace=wrap;html=1;" parent="1" vertex="1">
          <mxGeometry x="10" y="90" width="100" height="40" as="geometry" />
        </mxCell>
        <mxCell id="2YfyIhOvXKWT7bT9Da6l-9" value="" style="whiteSpace=wrap;html=1;aspect=fixed;rotation=45;" parent="1" vertex="1">
          <mxGeometry x="30" y="210" width="60" height="60" as="geometry" />
        </mxCell>
        <mxCell id="2YfyIhOvXKWT7bT9Da6l-17" value="" style="edgeStyle=orthogonalEdgeStyle;rounded=0;orthogonalLoop=1;jettySize=auto;html=1;" parent="1" source="2YfyIhOvXKWT7bT9Da6l-10" target="2YfyIhOvXKWT7bT9Da6l-4" edge="1">
          <mxGeometry relative="1" as="geometry" />
        </mxCell>
        <mxCell id="2YfyIhOvXKWT7bT9Da6l-10" value="&lt;font style=&quot;font-size: 33px;&quot;&gt;INICIO&lt;/font&gt;" style="strokeWidth=2;html=1;shape=mxgraph.flowchart.terminator;whiteSpace=wrap;" parent="1" vertex="1">
          <mxGeometry x="331" y="20" width="166" height="70" as="geometry" />
        </mxCell>
        <mxCell id="2YfyIhOvXKWT7bT9Da6l-11" value="&lt;font style=&quot;font-size: 34px;&quot;&gt;FINAL&lt;/font&gt;" style="strokeWidth=2;html=1;shape=mxgraph.flowchart.terminator;whiteSpace=wrap;" parent="1" vertex="1">
          <mxGeometry x="331" y="1020" width="166" height="70" as="geometry" />
        </mxCell>
        <mxCell id="2YfyIhOvXKWT7bT9Da6l-13" value="" style="strokeWidth=2;html=1;shape=mxgraph.flowchart.start_2;whiteSpace=wrap;" parent="1" vertex="1">
          <mxGeometry x="45" y="300" width="30" height="30" as="geometry" />
        </mxCell>
        <mxCell id="2YfyIhOvXKWT7bT9Da6l-21" value="" style="edgeStyle=orthogonalEdgeStyle;rounded=0;orthogonalLoop=1;jettySize=auto;html=1;" parent="1" source="2YfyIhOvXKWT7bT9Da6l-15" target="2YfyIhOvXKWT7bT9Da6l-20" edge="1">
          <mxGeometry relative="1" as="geometry" />
        </mxCell>
        <mxCell id="2YfyIhOvXKWT7bT9Da6l-23" value="" style="edgeStyle=orthogonalEdgeStyle;rounded=0;orthogonalLoop=1;jettySize=auto;html=1;" parent="1" source="2YfyIhOvXKWT7bT9Da6l-15" target="2YfyIhOvXKWT7bT9Da6l-22" edge="1">
          <mxGeometry relative="1" as="geometry" />
        </mxCell>
        <mxCell id="2YfyIhOvXKWT7bT9Da6l-15" value="&lt;font style=&quot;font-size: 14px;&quot;&gt;SE LETRA==S&lt;/font&gt;" style="strokeWidth=2;html=1;shape=mxgraph.flowchart.decision;whiteSpace=wrap;" parent="1" vertex="1">
          <mxGeometry x="344" y="270" width="140" height="140" as="geometry" />
        </mxCell>
        <mxCell id="2YfyIhOvXKWT7bT9Da6l-20" value="&lt;font style=&quot;font-size: 17px;&quot;&gt;IMPRIMA SOLTEIRO&lt;/font&gt;" style="shape=display;whiteSpace=wrap;html=1;" parent="1" vertex="1">
          <mxGeometry x="550" y="312.5" width="200" height="55" as="geometry" />
        </mxCell>
        <mxCell id="2YfyIhOvXKWT7bT9Da6l-25" value="" style="edgeStyle=orthogonalEdgeStyle;rounded=0;orthogonalLoop=1;jettySize=auto;html=1;" parent="1" source="2YfyIhOvXKWT7bT9Da6l-22" target="2YfyIhOvXKWT7bT9Da6l-24" edge="1">
          <mxGeometry relative="1" as="geometry" />
        </mxCell>
        <mxCell id="2YfyIhOvXKWT7bT9Da6l-33" value="" style="edgeStyle=orthogonalEdgeStyle;rounded=0;orthogonalLoop=1;jettySize=auto;html=1;" parent="1" source="2YfyIhOvXKWT7bT9Da6l-22" target="2YfyIhOvXKWT7bT9Da6l-26" edge="1">
          <mxGeometry relative="1" as="geometry" />
        </mxCell>
        <mxCell id="2YfyIhOvXKWT7bT9Da6l-22" value="&lt;font style=&quot;font-size: 14px;&quot;&gt;SE LETRA==C&lt;/font&gt;" style="strokeWidth=2;html=1;shape=mxgraph.flowchart.decision;whiteSpace=wrap;" parent="1" vertex="1">
          <mxGeometry x="343" y="445" width="140" height="140" as="geometry" />
        </mxCell>
        <mxCell id="2YfyIhOvXKWT7bT9Da6l-24" value="&lt;font style=&quot;font-size: 17px;&quot;&gt;IMPRIMA CASADO&lt;/font&gt;" style="shape=display;whiteSpace=wrap;html=1;" parent="1" vertex="1">
          <mxGeometry x="550" y="487.5" width="200" height="55" as="geometry" />
        </mxCell>
        <mxCell id="2YfyIhOvXKWT7bT9Da6l-34" value="" style="edgeStyle=orthogonalEdgeStyle;rounded=0;orthogonalLoop=1;jettySize=auto;html=1;" parent="1" source="2YfyIhOvXKWT7bT9Da6l-26" target="2YfyIhOvXKWT7bT9Da6l-27" edge="1">
          <mxGeometry relative="1" as="geometry" />
        </mxCell>
        <mxCell id="2YfyIhOvXKWT7bT9Da6l-38" value="" style="edgeStyle=orthogonalEdgeStyle;rounded=0;orthogonalLoop=1;jettySize=auto;html=1;" parent="1" source="2YfyIhOvXKWT7bT9Da6l-26" target="2YfyIhOvXKWT7bT9Da6l-37" edge="1">
          <mxGeometry relative="1" as="geometry" />
        </mxCell>
        <mxCell id="2YfyIhOvXKWT7bT9Da6l-26" value="&lt;font style=&quot;font-size: 14px;&quot;&gt;SE LETRA==D&lt;/font&gt;" style="strokeWidth=2;html=1;shape=mxgraph.flowchart.decision;whiteSpace=wrap;" parent="1" vertex="1">
          <mxGeometry x="344" y="620" width="140" height="140" as="geometry" />
        </mxCell>
        <mxCell id="2YfyIhOvXKWT7bT9Da6l-27" value="&lt;font style=&quot;font-size: 17px;&quot;&gt;IMPRIMA DIVORCIADO&lt;/font&gt;" style="shape=display;whiteSpace=wrap;html=1;" parent="1" vertex="1">
          <mxGeometry x="550" y="662.5" width="200" height="55" as="geometry" />
        </mxCell>
        <mxCell id="2YfyIhOvXKWT7bT9Da6l-28" value="&lt;font style=&quot;font-size: 20px;&quot;&gt;V&lt;/font&gt;" style="text;html=1;align=center;verticalAlign=middle;whiteSpace=wrap;rounded=0;" parent="1" vertex="1">
          <mxGeometry x="484" y="300" width="60" height="30" as="geometry" />
        </mxCell>
        <mxCell id="2YfyIhOvXKWT7bT9Da6l-29" value="&lt;font style=&quot;font-size: 20px;&quot;&gt;V&lt;/font&gt;" style="text;html=1;align=center;verticalAlign=middle;whiteSpace=wrap;rounded=0;" parent="1" vertex="1">
          <mxGeometry x="483" y="480" width="60" height="30" as="geometry" />
        </mxCell>
        <mxCell id="2YfyIhOvXKWT7bT9Da6l-32" value="&lt;font style=&quot;font-size: 20px;&quot;&gt;F&lt;/font&gt;" style="text;html=1;align=center;verticalAlign=middle;whiteSpace=wrap;rounded=0;" parent="1" vertex="1">
          <mxGeometry x="414" y="415" width="60" height="30" as="geometry" />
        </mxCell>
        <mxCell id="2YfyIhOvXKWT7bT9Da6l-35" value="&lt;font style=&quot;font-size: 20px;&quot;&gt;V&lt;/font&gt;" style="text;html=1;align=center;verticalAlign=middle;whiteSpace=wrap;rounded=0;" parent="1" vertex="1">
          <mxGeometry x="486" y="650" width="60" height="30" as="geometry" />
        </mxCell>
        <mxCell id="2YfyIhOvXKWT7bT9Da6l-36" value="&lt;font style=&quot;font-size: 20px;&quot;&gt;F&lt;/font&gt;" style="text;html=1;align=center;verticalAlign=middle;whiteSpace=wrap;rounded=0;" parent="1" vertex="1">
          <mxGeometry x="426" y="585" width="60" height="30" as="geometry" />
        </mxCell>
        <mxCell id="2YfyIhOvXKWT7bT9Da6l-40" value="" style="edgeStyle=orthogonalEdgeStyle;rounded=0;orthogonalLoop=1;jettySize=auto;html=1;" parent="1" source="2YfyIhOvXKWT7bT9Da6l-37" target="2YfyIhOvXKWT7bT9Da6l-39" edge="1">
          <mxGeometry relative="1" as="geometry" />
        </mxCell>
        <mxCell id="2YfyIhOvXKWT7bT9Da6l-44" value="" style="edgeStyle=orthogonalEdgeStyle;rounded=0;orthogonalLoop=1;jettySize=auto;html=1;" parent="1" source="2YfyIhOvXKWT7bT9Da6l-37" target="2YfyIhOvXKWT7bT9Da6l-11" edge="1">
          <mxGeometry relative="1" as="geometry" />
        </mxCell>
        <mxCell id="2YfyIhOvXKWT7bT9Da6l-37" value="&lt;font style=&quot;font-size: 14px;&quot;&gt;SE LETRA==V&lt;/font&gt;" style="strokeWidth=2;html=1;shape=mxgraph.flowchart.decision;whiteSpace=wrap;" parent="1" vertex="1">
          <mxGeometry x="344" y="800" width="140" height="140" as="geometry" />
        </mxCell>
        <mxCell id="2YfyIhOvXKWT7bT9Da6l-39" value="&lt;font style=&quot;font-size: 17px;&quot;&gt;IMPRIMA VIUVO&lt;/font&gt;" style="shape=display;whiteSpace=wrap;html=1;" parent="1" vertex="1">
          <mxGeometry x="550" y="842.5" width="200" height="55" as="geometry" />
        </mxCell>
        <mxCell id="2YfyIhOvXKWT7bT9Da6l-41" value="&lt;font style=&quot;font-size: 20px;&quot;&gt;V&lt;/font&gt;" style="text;html=1;align=center;verticalAlign=middle;whiteSpace=wrap;rounded=0;" parent="1" vertex="1">
          <mxGeometry x="483" y="830" width="60" height="30" as="geometry" />
        </mxCell>
        <mxCell id="2YfyIhOvXKWT7bT9Da6l-43" value="&lt;font style=&quot;font-size: 20px;&quot;&gt;F&lt;/font&gt;" style="text;html=1;align=center;verticalAlign=middle;whiteSpace=wrap;rounded=0;" parent="1" vertex="1">
          <mxGeometry x="426" y="760" width="60" height="30" as="geometry" />
        </mxCell>
      </root>
    </mxGraphModel>
  </diagram>
</mxfile>
